<svg width="503" height="146" viewBox="0 0 503 146" fill="none" xmlns="http://www.w3.org/2000/svg">
<g clip-path="url(#clip0_209_4)">
<rect width="503" height="146" fill="url(#paint0_linear_209_4)"/>
<g filter="url(#filter0_d_209_4)">
<path d="M73.7715 66.3736H61.6634C61.5019 65.1305 61.171 64.0085 60.6705 63.0076C60.17 62.0066 59.5081 61.151 58.6848 60.4406C57.8614 59.7303 56.8847 59.1895 55.7546 58.8182C54.6407 58.4307 53.4056 58.237 52.0495 58.237C49.644 58.237 47.5695 58.8262 45.8259 60.0048C44.0985 61.1833 42.7666 62.8865 41.8303 65.1144C40.9101 67.3423 40.4499 70.0383 40.4499 73.2026C40.4499 76.496 40.9181 79.2566 41.8545 81.4845C42.807 83.6963 44.1389 85.3672 45.8502 86.4973C47.5776 87.6112 49.6198 88.1682 51.9769 88.1682C53.3007 88.1682 54.5034 87.9987 55.5851 87.6597C56.6829 87.3206 57.6435 86.8283 58.4668 86.1825C59.3063 85.5206 59.9924 84.7214 60.5252 83.7851C61.0741 82.8326 61.4535 81.759 61.6634 80.5643L73.7715 80.637C73.5616 82.8326 72.9239 84.9959 71.8584 87.1269C70.809 89.2579 69.3641 91.2033 67.5237 92.963C65.6832 94.7066 63.4392 96.095 60.7916 97.1282C58.1601 98.1614 55.1411 98.6781 51.7347 98.6781C47.2466 98.6781 43.2267 97.6933 39.675 95.7237C36.1395 93.7379 33.3465 90.8481 31.2962 87.0543C29.2459 83.2604 28.2208 78.6432 28.2208 73.2026C28.2208 67.7459 29.2621 63.1206 31.3446 59.3267C33.4272 55.5328 36.2444 52.6511 39.7961 50.6815C43.3478 48.7119 47.3274 47.7271 51.7347 47.7271C54.7375 47.7271 57.5143 48.1469 60.0651 48.9864C62.6159 49.8097 64.8599 51.0205 66.7972 52.6188C68.7345 54.2009 70.3085 56.1463 71.5194 58.4549C72.7302 60.7635 73.4809 63.4031 73.7715 66.3736ZM80.6307 98V48.4052H101.118C104.831 48.4052 108.035 49.0752 110.731 50.4151C113.444 51.7389 115.534 53.644 117.003 56.1302C118.473 58.6002 119.207 61.5304 119.207 64.9206C119.207 68.3593 118.456 71.2814 116.955 73.6869C115.454 76.0762 113.323 77.9005 110.562 79.1598C107.801 80.4029 104.532 81.0244 100.754 81.0244H87.7987V71.5801H98.5265C100.335 71.5801 101.844 71.346 103.055 70.8778C104.282 70.3935 105.21 69.667 105.84 68.6984C106.469 67.7136 106.784 66.4543 106.784 64.9206C106.784 63.3869 106.469 62.1196 105.84 61.1187C105.21 60.1016 104.282 59.3428 103.055 58.8424C101.828 58.3258 100.318 58.0675 98.5265 58.0675H92.6177V98H80.6307ZM108.552 75.3336L120.902 98H107.826L95.7174 75.3336H108.552ZM155.786 48.4052H167.749V80.3948C167.749 84.0918 166.869 87.3126 165.109 90.0571C163.349 92.7854 160.895 94.9003 157.747 96.4017C154.599 97.887 150.943 98.6296 146.777 98.6296C142.564 98.6296 138.883 97.887 135.735 96.4017C132.587 94.9003 130.141 92.7854 128.397 90.0571C126.654 87.3126 125.782 84.0918 125.782 80.3948V48.4052H137.769V79.3535C137.769 81.0648 138.14 82.5904 138.883 83.9304C139.642 85.2703 140.699 86.3197 142.055 87.0785C143.411 87.8373 144.985 88.2166 146.777 88.2166C148.569 88.2166 150.135 87.8373 151.475 87.0785C152.831 86.3197 153.889 85.2703 154.648 83.9304C155.406 82.5904 155.786 81.0648 155.786 79.3535V48.4052ZM193.593 98H175.262V48.4052H193.569C198.622 48.4052 202.973 49.398 206.622 51.3838C210.286 53.3534 213.112 56.1947 215.097 59.9079C217.083 63.6049 218.076 68.0284 218.076 73.1784C218.076 78.3445 217.083 82.7841 215.097 86.4973C213.128 90.2104 210.311 93.0599 206.646 95.0456C202.981 97.0152 198.63 98 193.593 98ZM187.249 87.7808H193.133C195.91 87.7808 198.259 87.3126 200.18 86.3762C202.117 85.4237 203.578 83.8819 204.563 81.7509C205.564 79.6037 206.065 76.7462 206.065 73.1784C206.065 69.6105 205.564 66.7691 204.563 64.6543C203.562 62.5232 202.085 60.9895 200.132 60.0532C198.194 59.1007 195.805 58.6244 192.964 58.6244H187.249V87.7808Z" fill="white"/>
</g>
<path d="M432.466 117.604C419.204 107.602 419.204 87.6858 432.466 77.6837L496.447 29.432C512.919 17.0091 536.5 28.7603 536.5 49.3921V145.896C536.5 166.527 512.919 178.278 496.447 165.856L432.466 117.604Z" fill="white" fill-opacity="0.25"/>
<path d="M443.442 82.4613C430.188 72.459 430.188 52.5535 443.442 42.5512L491.128 6.56354C507.599 -5.86707 531.188 5.88308 531.188 26.5186V98.494C531.188 119.13 507.599 130.88 491.128 118.449L443.442 82.4613Z" fill="white" fill-opacity="0.25"/>
</g>
<defs>
<filter id="filter0_d_209_4" x="20.2207" y="34.7271" width="223.855" height="84.9509" filterUnits="userSpaceOnUse" color-interpolation-filters="sRGB">
<feFlood flood-opacity="0" result="BackgroundImageFix"/>
<feColorMatrix in="SourceAlpha" type="matrix" values="0 0 0 0 0 0 0 0 0 0 0 0 0 0 0 0 0 0 127 0" result="hardAlpha"/>
<feOffset dx="9" dy="4"/>
<feGaussianBlur stdDeviation="8.5"/>
<feComposite in2="hardAlpha" operator="out"/>
<feColorMatrix type="matrix" values="0 0 0 0 0 0 0 0 0 0 0 0 0 0 0 0 0 0 0.25 0"/>
<feBlend mode="normal" in2="BackgroundImageFix" result="effect1_dropShadow_209_4"/>
<feBlend mode="normal" in="SourceGraphic" in2="effect1_dropShadow_209_4" result="shape"/>
</filter>
<linearGradient id="paint0_linear_209_4" x1="0" y1="0" x2="509.738" y2="116.526" gradientUnits="userSpaceOnUse">
<stop offset="0.0467142" stop-color="#D6F9E0"/>
<stop offset="0.383052" stop-color="#17EE53"/>
<stop offset="0.791193" stop-color="#0A8D46"/>
</linearGradient>
<clipPath id="clip0_209_4">
<rect width="503" height="146" fill="white"/>
</clipPath>
</defs>
</svg>
