<svg width="503" height="146" viewBox="0 0 503 146" fill="none" xmlns="http://www.w3.org/2000/svg">
<g clip-path="url(#clip0_209_6)">
<rect width="503" height="146" fill="#61C6FF"/>
<path d="M367.499 15.1624C386.999 -10.3376 427.499 -6.83763 429.499 -6.83763V146.162H239C258 141.329 292.499 122.962 278.499 88.1624C264.499 53.3624 285.999 43.6624 298.499 43.1624C314.999 42.329 351.899 35.5624 367.499 15.1624Z" fill="#13AAFF"/>
<path d="M409.499 15.1624C428.999 -10.3376 469.499 -6.83763 471.499 -6.83763V146.162H281C300 141.329 334.499 122.962 320.499 88.1624C306.499 53.3624 327.999 43.6624 340.499 43.1624C356.999 42.329 393.899 35.5624 409.499 15.1624Z" fill="#0F7DE2"/>
<g filter="url(#filter0_d_209_6)">
<path d="M28.7535 98V48.4052H49.2404C52.9536 48.4052 56.1582 49.1317 58.8543 50.5846C61.5665 52.0215 63.6572 54.0314 65.1263 56.6145C66.5954 59.1814 67.3299 62.1681 67.3299 65.5745C67.3299 68.997 66.5792 71.9918 65.0778 74.5587C63.5926 77.1095 61.4696 79.0871 58.709 80.4917C55.9483 81.8962 52.6711 82.5985 48.8772 82.5985H36.2363V73.1542H46.6493C48.4574 73.1542 49.9669 72.8393 51.1777 72.2097C52.4047 71.5801 53.333 70.7002 53.9626 69.5702C54.5922 68.4239 54.907 67.092 54.907 65.5745C54.907 64.0408 54.5922 62.717 53.9626 61.603C53.333 60.4729 52.4047 59.6011 51.1777 58.9877C49.9508 58.3742 48.4413 58.0675 46.6493 58.0675H40.7405V98H28.7535ZM73.2387 98V48.4052H93.7256C97.4388 48.4052 100.643 49.0752 103.339 50.4151C106.052 51.7389 108.142 53.644 109.611 56.1302C111.081 58.6002 111.815 61.5304 111.815 64.9206C111.815 68.3593 111.064 71.2814 109.563 73.6869C108.062 76.0762 105.931 77.9005 103.17 79.1598C100.409 80.4029 97.1401 81.0244 93.3624 81.0244H80.4067V71.5801H91.1345C92.9426 71.5801 94.4521 71.346 95.6629 70.8778C96.8899 70.3935 97.8182 69.667 98.4478 68.6984C99.0774 67.7136 99.3922 66.4543 99.3922 64.9206C99.3922 63.3869 99.0774 62.1196 98.4478 61.1187C97.8182 60.1016 96.8899 59.3428 95.6629 58.8424C94.436 58.3258 92.9265 58.0675 91.1345 58.0675H85.2257V98H73.2387ZM101.16 75.3336L113.51 98H100.434L88.3254 75.3336H101.16ZM130.377 48.4052V98H118.39V48.4052H130.377ZM149.163 48.4052L160.254 84.7295H160.665L171.756 48.4052H185.172L168.439 98H152.48L135.747 48.4052H149.163ZM193.848 98H180.965L197.698 48.4052H213.656L230.39 98H217.507L205.859 60.9008H205.471L193.848 98ZM192.128 78.4817H219.057V87.587H192.128V78.4817ZM227.914 58.1401V48.4052H269.832V58.1401H254.794V98H242.976V58.1401H227.914ZM275.686 98V48.4052H310.267V58.1401H287.673V68.3109H308.499V78.0701H287.673V88.2651H310.267V98H275.686Z" fill="white"/>
</g>
<path d="M443.499 18.1624C462.999 -7.33763 503.499 -3.83763 505.499 -3.83763V149.162H315C334 144.329 368.499 125.962 354.499 91.1624C340.499 56.3624 361.999 46.6624 374.499 46.1624C390.999 45.329 427.899 38.5624 443.499 18.1624Z" fill="#00529D"/>
</g>
<defs>
<filter id="filter0_d_209_6" x="20.7539" y="35.4052" width="315.514" height="83.5948" filterUnits="userSpaceOnUse" color-interpolation-filters="sRGB">
<feFlood flood-opacity="0" result="BackgroundImageFix"/>
<feColorMatrix in="SourceAlpha" type="matrix" values="0 0 0 0 0 0 0 0 0 0 0 0 0 0 0 0 0 0 127 0" result="hardAlpha"/>
<feOffset dx="9" dy="4"/>
<feGaussianBlur stdDeviation="8.5"/>
<feComposite in2="hardAlpha" operator="out"/>
<feColorMatrix type="matrix" values="0 0 0 0 0 0 0 0 0 0 0 0 0 0 0 0 0 0 0.25 0"/>
<feBlend mode="normal" in2="BackgroundImageFix" result="effect1_dropShadow_209_6"/>
<feBlend mode="normal" in="SourceGraphic" in2="effect1_dropShadow_209_6" result="shape"/>
</filter>
<clipPath id="clip0_209_6">
<rect width="503" height="146" fill="white"/>
</clipPath>
</defs>
</svg>
